<svg xmlns="http://www.w3.org/2000/svg" xmlns:xlink="http://www.w3.org/1999/xlink" viewBox="0 0 235.84 253.03"><defs><style>.cls-1,.cls-2,.cls-4{fill:none;}.cls-2{clip-path:url(#clip-path);clip-rule:evenodd;}.cls-3{clip-path:url(#clip-path-7);}.cls-4{stroke:#6b7574;stroke-miterlimit:10;stroke-width:8px;}.cls-5{clip-path:url(#clip-path-8);}.cls-6{clip-path:url(#clip-path-9);}.cls-7{clip-path:url(#clip-path-10);}.cls-8{clip-path:url(#clip-path-11);}.cls-9{clip-path:url(#clip-path-12);}</style><clipPath id="clip-path"><rect id="SVGID" class="cls-1" x="20.44" y="28" width="195" height="323"/></clipPath><clipPath id="clip-path-7"><polygon id="SVGID-7" data-name="SVGID" class="cls-2" points="98.4 169.61 118.91 28.72 138.04 169.61 118.06 208.93 98.4 169.61 98.4 169.61"/></clipPath><clipPath id="clip-path-8"><path id="SVGID-8" data-name="SVGID" class="cls-2" d="M115.1,209l17.84-54,64.88-48.29h16.91L200,112.57q-37.5,73.62-45.78,83.4-12.84,15.21-39.07,13Z"/></clipPath><clipPath id="clip-path-9"><path id="SVGID-9" data-name="SVGID" class="cls-2" d="M120.73,209l-17.83-54L38,106.76H21.1l14.78,5.81Q73.4,186.19,81.66,196q12.86,15.21,39.07,13Z"/></clipPath><clipPath id="clip-path-10"><path id="SVGID-10" data-name="SVGID" class="cls-2" d="M118.25,209.37l-3.62-11.77v-1.32L69.47,176.66l-43.33,7.07Q73.57,201,85.86,204.38t32.39,5Z"/></clipPath><clipPath id="clip-path-11"><path id="SVGID-11" data-name="SVGID" class="cls-2" d="M116.14,209.37l3.62-11.77v-1.32l45.15-19.62,43.34,7.07Q160.82,201,148.52,204.38t-32.38,5Z"/></clipPath><clipPath id="clip-path-12"><polygon id="SVGID-12" data-name="SVGID" class="cls-2" points="117.2 249.03 111.53 196.37 124.7 196.37 119.87 249.03 117.2 249.03 117.2 249.03"/></clipPath></defs><title>Asset 1</title><g id="Layer_2" data-name="Layer 2"><g id="Layer_1-2" data-name="Layer 1"><g class="cls-3"><polygon class="cls-4" points="98.4 169.61 118.91 28.72 138.04 169.61 118.06 208.93 98.4 169.61 98.4 169.61"/></g><g class="cls-5"><path class="cls-4" d="M115.1,209l17.84-54,64.88-48.29h16.91L200,112.57q-37.5,73.62-45.78,83.4-12.84,15.21-39.07,13Z"/></g><g class="cls-6"><path class="cls-4" d="M120.73,209l-17.83-54L38,106.76H21.1l14.78,5.81Q73.4,186.19,81.66,196q12.86,15.21,39.07,13Z"/></g><g class="cls-7"><path class="cls-4" d="M118.25,209.37l-3.62-11.77v-1.32L69.47,176.66l-43.33,7.07Q73.57,201,85.86,204.38t32.39,5Z"/></g><g class="cls-8"><path class="cls-4" d="M116.14,209.37l3.62-11.77v-1.32l45.15-19.62,43.34,7.07Q160.82,201,148.52,204.38t-32.38,5Z"/></g><g class="cls-9"><polygon class="cls-4" points="117.2 249.03 111.53 196.37 124.7 196.37 119.87 249.03 117.2 249.03 117.2 249.03"/></g></g></g></svg>